<svg width="400" height="250" viewBox="0 0 400 250" fill="none" xmlns="http://www.w3.org/2000/svg">
<path d="M234.38 97.9299C235.004 97.9299 235.51 97.424 235.51 96.7999C235.51 96.1758 235.004 95.6699 234.38 95.6699C233.756 95.6699 233.25 96.1758 233.25 96.7999C233.25 97.424 233.756 97.9299 234.38 97.9299Z" fill="#3F157A"/>
<path d="M256 172.66C256.015 172.817 255.997 172.975 255.947 173.124C255.897 173.273 255.817 173.41 255.711 173.527C255.605 173.643 255.476 173.736 255.332 173.8C255.188 173.863 255.032 173.896 254.875 173.896C254.718 173.896 254.562 173.863 254.418 173.8C254.274 173.736 254.145 173.643 254.039 173.527C253.933 173.41 253.853 173.273 253.803 173.124C253.753 172.975 253.735 172.817 253.75 172.66C253.776 172.38 253.906 172.12 254.114 171.93C254.322 171.741 254.594 171.636 254.875 171.636C255.156 171.636 255.428 171.741 255.636 171.93C255.844 172.12 255.974 172.38 256 172.66Z" fill="#3F157A"/>
<path d="M94.73 104.6C94.732 104.824 94.6671 105.044 94.5437 105.232C94.4203 105.419 94.244 105.565 94.0371 105.652C93.8302 105.739 93.6022 105.762 93.382 105.719C93.1619 105.675 92.9596 105.568 92.801 105.409C92.6424 105.25 92.5346 105.048 92.4913 104.828C92.448 104.608 92.4712 104.38 92.558 104.173C92.6447 103.966 92.7911 103.79 92.9785 103.666C93.1658 103.543 93.3857 103.478 93.61 103.48C93.907 103.48 94.1919 103.598 94.402 103.808C94.612 104.018 94.73 104.303 94.73 104.6Z" fill="#3F157A"/>
<path d="M257 80.28C257 80.4285 256.941 80.5709 256.836 80.6759C256.731 80.781 256.589 80.84 256.44 80.84C256.291 80.84 256.149 80.781 256.044 80.6759C255.939 80.5709 255.88 80.4285 255.88 80.28C255.88 80.1314 255.939 79.989 256.044 79.884C256.149 79.779 256.291 79.72 256.44 79.72C256.589 79.72 256.731 79.779 256.836 79.884C256.941 79.989 257 80.1314 257 80.28V80.28Z" fill="#EAF0FB"/>
<path d="M149.65 171.3C149.648 171.41 149.614 171.518 149.551 171.608C149.488 171.699 149.4 171.769 149.297 171.81C149.195 171.851 149.083 171.861 148.975 171.838C148.867 171.815 148.768 171.761 148.691 171.682C148.613 171.604 148.561 171.504 148.54 171.396C148.519 171.287 148.531 171.175 148.574 171.073C148.616 170.972 148.688 170.885 148.78 170.824C148.872 170.763 148.98 170.73 149.09 170.73C149.164 170.73 149.238 170.745 149.307 170.774C149.375 170.802 149.437 170.844 149.49 170.898C149.542 170.951 149.583 171.014 149.61 171.083C149.638 171.152 149.651 171.226 149.65 171.3V171.3Z" fill="#EAF0FB"/>
<path d="M268.53 147.26C268.53 147.408 268.471 147.551 268.366 147.656C268.261 147.761 268.119 147.82 267.97 147.82C267.821 147.82 267.679 147.761 267.574 147.656C267.469 147.551 267.41 147.408 267.41 147.26C267.41 147.111 267.469 146.969 267.574 146.864C267.679 146.759 267.821 146.7 267.97 146.7C268.119 146.7 268.261 146.759 268.366 146.864C268.471 146.969 268.53 147.111 268.53 147.26Z" fill="#EAF0FB"/>
<path d="M115 79.1498C115 79.2606 114.967 79.3689 114.906 79.461C114.844 79.5531 114.757 79.6248 114.654 79.6672C114.552 79.7096 114.439 79.7207 114.331 79.6991C114.222 79.6775 114.122 79.6241 114.044 79.5458C113.966 79.4675 113.912 79.3677 113.891 79.2591C113.869 79.1505 113.88 79.0379 113.923 78.9355C113.965 78.8332 114.037 78.7458 114.129 78.6842C114.221 78.6227 114.329 78.5898 114.44 78.5898C114.589 78.5898 114.731 78.6488 114.836 78.7539C114.941 78.8589 115 79.0013 115 79.1498Z" fill="#EAF0FB"/>
<path d="M144.7 92.8899C144.711 92.9704 144.704 93.0523 144.681 93.1301C144.657 93.2078 144.617 93.2796 144.564 93.3407C144.51 93.4018 144.444 93.4508 144.37 93.4844C144.296 93.5179 144.216 93.5353 144.135 93.5353C144.054 93.5353 143.973 93.5179 143.9 93.4844C143.826 93.4508 143.76 93.4018 143.706 93.3407C143.653 93.2796 143.613 93.2078 143.589 93.1301C143.566 93.0523 143.559 92.9704 143.57 92.8899C143.588 92.753 143.656 92.6274 143.76 92.5364C143.863 92.4454 143.997 92.3953 144.135 92.3953C144.273 92.3953 144.407 92.4454 144.51 92.5364C144.614 92.6274 144.682 92.753 144.7 92.8899Z" fill="#EAF0FB"/>
<path d="M206.15 64.1199C206.15 64.2684 206.091 64.4109 205.986 64.5159C205.881 64.6209 205.739 64.6799 205.59 64.6799C205.509 64.6907 205.428 64.6841 205.35 64.6606C205.272 64.6371 205.2 64.5973 205.139 64.5438C205.078 64.4903 205.029 64.4243 204.996 64.3504C204.962 64.2764 204.945 64.1961 204.945 64.1149C204.945 64.0337 204.962 63.9534 204.996 63.8795C205.029 63.8055 205.078 63.7396 205.139 63.6861C205.2 63.6326 205.272 63.5927 205.35 63.5693C205.428 63.5458 205.509 63.5392 205.59 63.5499C205.664 63.5499 205.738 63.5647 205.807 63.5935C205.875 63.6223 205.937 63.6644 205.99 63.7175C206.042 63.7705 206.083 63.8334 206.11 63.9025C206.138 63.9716 206.151 64.0455 206.15 64.1199Z" fill="#EAF0FB"/>
<path d="M294.45 132.26C294.45 132.483 294.384 132.702 294.26 132.888C294.135 133.073 293.959 133.218 293.752 133.304C293.546 133.389 293.319 133.412 293.1 133.368C292.88 133.325 292.679 133.217 292.521 133.059C292.363 132.901 292.255 132.7 292.212 132.48C292.168 132.261 292.19 132.034 292.276 131.827C292.362 131.621 292.506 131.444 292.692 131.32C292.878 131.196 293.096 131.13 293.32 131.13C293.62 131.13 293.907 131.249 294.119 131.461C294.331 131.673 294.45 131.96 294.45 132.26Z" fill="#3F157A"/>
<path d="M98.64 145.21L99.11 146.8L100.69 147.26L99.11 147.73L98.64 149.31L98.18 147.73L96.59 147.26L98.18 146.8L98.64 145.21Z" fill="#EAF0FB"/>
<path d="M279.13 106.61L279.59 108.2L281.18 108.66L279.59 109.13L279.13 110.71L278.66 109.13L277.07 108.66L278.66 108.2L279.13 106.61Z" fill="#EAF0FB"/>
<path d="M299 76.7499C298.746 76.7686 298.491 76.7348 298.251 76.6505C298.011 76.5663 297.791 76.4334 297.605 76.2603C297.419 76.0871 297.27 75.8774 297.168 75.6442C297.067 75.411 297.014 75.1593 297.014 74.9049C297.014 74.6505 297.067 74.3989 297.168 74.1657C297.27 73.9325 297.419 73.7227 297.605 73.5496C297.791 73.3764 298.011 73.2436 298.251 73.1593C298.491 73.0751 298.746 73.0412 299 73.0599" fill="#3F157A"/>
<path d="M335.72 199.13C335.732 199.51 335.63 199.885 335.428 200.207C335.225 200.529 334.931 200.783 334.583 200.937C334.236 201.091 333.85 201.137 333.476 201.07C333.101 201.004 332.755 200.827 332.482 200.562C332.209 200.297 332.021 199.957 331.942 199.585C331.864 199.213 331.898 198.826 332.04 198.474C332.183 198.121 332.428 197.819 332.743 197.607C333.058 197.394 333.43 197.28 333.81 197.28C334.057 197.276 334.302 197.321 334.532 197.412C334.761 197.502 334.971 197.638 335.148 197.809C335.326 197.981 335.467 198.186 335.565 198.413C335.664 198.639 335.716 198.883 335.72 199.13V199.13Z" fill="#3F157A"/>
<path d="M335.41 47.8399C335.471 47.6322 335.597 47.4497 335.77 47.3199C335.943 47.1901 336.154 47.1199 336.37 47.1199C336.586 47.1199 336.797 47.1901 336.97 47.3199C337.143 47.4497 337.269 47.6322 337.33 47.8399" fill="#EAF0FB"/>
<path d="M355.08 157.53C355.143 157.326 355.27 157.148 355.442 157.021C355.614 156.895 355.822 156.827 356.035 156.827C356.248 156.827 356.456 156.895 356.628 157.021C356.8 157.148 356.927 157.326 356.99 157.53" fill="#EAF0FB"/>
<path d="M250 22.3C249.756 22.3 249.522 22.203 249.349 22.0305C249.177 21.858 249.08 21.624 249.08 21.38C249.08 21.136 249.177 20.902 249.349 20.7294C249.522 20.5569 249.756 20.46 250 20.46" fill="#EAF0FB"/>
<path d="M335.72 123.16C335.72 123.666 335.519 124.152 335.161 124.51C334.802 124.869 334.317 125.07 333.81 125.07C333.303 125.07 332.818 124.869 332.459 124.51C332.101 124.152 331.9 123.666 331.9 123.16" fill="#3F157A"/>
<path d="M374.2 93.56L374.99 90.97L375.78 93.56" fill="#EAF0FB"/>
<path d="M35.84 77.7799C35.8844 78.2739 35.7784 78.7697 35.536 79.2023C35.2936 79.635 34.926 79.9843 34.4816 80.2044C34.0372 80.4245 33.5367 80.5051 33.0456 80.4357C32.5545 80.3663 32.0959 80.1501 31.7299 79.8155C31.3639 79.4808 31.1076 79.0434 30.9946 78.5605C30.8816 78.0776 30.9171 77.5718 31.0966 77.1095C31.2761 76.6472 31.5912 76.25 32.0004 75.9699C32.4097 75.6898 32.8941 75.5399 33.39 75.5399C34.0111 75.5154 34.6167 75.7369 35.0754 76.1563C35.5341 76.5757 35.8089 77.1592 35.84 77.7799V77.7799Z" fill="#3F157A"/>
<path d="M124 204.05C124.02 204.294 123.966 204.539 123.845 204.753C123.724 204.966 123.541 205.138 123.32 205.246C123.1 205.354 122.852 205.393 122.609 205.357C122.366 205.322 122.14 205.215 121.959 205.049C121.778 204.883 121.652 204.666 121.596 204.427C121.54 204.188 121.558 203.938 121.647 203.709C121.735 203.48 121.891 203.284 122.093 203.145C122.295 203.006 122.535 202.931 122.78 202.93C123.09 202.919 123.391 203.03 123.619 203.24C123.848 203.45 123.984 203.74 124 204.05V204.05Z" fill="#EAF0FB"/>
<path d="M79.87 27C79.8901 27.2465 79.8354 27.4934 79.7131 27.7084C79.5907 27.9234 79.4064 28.0965 79.1841 28.2051C78.9619 28.3137 78.7121 28.3528 78.4673 28.3172C78.2225 28.2817 77.9941 28.1731 77.8119 28.0058C77.6298 27.8384 77.5023 27.62 77.4462 27.3791C77.39 27.1382 77.4078 26.886 77.4973 26.6554C77.5867 26.4247 77.7435 26.2264 77.9474 26.0863C78.1513 25.9462 78.3926 25.8708 78.64 25.87C78.795 25.8633 78.9498 25.8872 79.0955 25.9404C79.2413 25.9936 79.3751 26.075 79.4893 26.1799C79.6036 26.2849 79.696 26.4113 79.7613 26.5521C79.8266 26.6928 79.8636 26.845 79.87 27V27Z" fill="#EAF0FB"/>
<path d="M144.54 54.39C144.562 54.6368 144.509 54.8845 144.388 55.1007C144.267 55.3169 144.084 55.4915 143.862 55.6017C143.64 55.7119 143.39 55.7525 143.145 55.7182C142.899 55.6839 142.67 55.5763 142.487 55.4095C142.304 55.2427 142.175 55.0244 142.118 54.7833C142.061 54.5423 142.078 54.2895 142.167 54.0583C142.256 53.8271 142.413 53.6281 142.617 53.4875C142.821 53.3468 143.062 53.271 143.31 53.27C143.621 53.2591 143.923 53.3701 144.153 53.5794C144.383 53.7887 144.522 54.0797 144.54 54.39V54.39Z" fill="#EAF0FB"/>
<path d="M42.62 158.88L43.23 160.83L45.35 161.4L43.23 161.96L42.62 163.91L42 161.96L39.88 161.4L42 160.83L42.62 158.88Z" fill="#EAF0FB"/>
<path d="M58.93 215.21C58.9439 215.592 58.8435 215.969 58.6416 216.294C58.4398 216.619 58.1456 216.876 57.7968 217.032C57.448 217.188 57.0605 217.237 56.6839 217.172C56.3072 217.107 55.9586 216.931 55.6827 216.666C55.4067 216.402 55.216 216.061 55.1349 215.687C55.0539 215.314 55.0862 214.924 55.2277 214.569C55.3691 214.214 55.6134 213.909 55.9292 213.694C56.2449 213.479 56.6178 213.362 57 213.36C57.2486 213.353 57.496 213.396 57.7279 213.486C57.9598 213.575 58.1717 213.71 58.3512 213.882C58.5307 214.054 58.6742 214.26 58.7736 214.488C58.873 214.716 58.9261 214.961 58.93 215.21V215.21Z" fill="#3F157A"/>
<path d="M195.19 140.81C195.814 140.81 196.32 140.304 196.32 139.68C196.32 139.056 195.814 138.55 195.19 138.55C194.566 138.55 194.06 139.056 194.06 139.68C194.06 140.304 194.566 140.81 195.19 140.81Z" fill="#3F157A"/>
<path d="M216.53 214.71C216.723 214.934 216.823 215.222 216.812 215.517C216.801 215.812 216.679 216.092 216.47 216.3C216.262 216.509 215.982 216.631 215.687 216.642C215.392 216.653 215.104 216.552 214.88 216.36V216.36C214.687 216.136 214.587 215.848 214.598 215.553C214.609 215.258 214.731 214.978 214.94 214.769C215.148 214.561 215.428 214.439 215.723 214.428C216.018 214.417 216.306 214.517 216.53 214.71V214.71Z" fill="#3F157A"/>
<path d="M217.77 123.15C217.77 123.298 217.711 123.441 217.606 123.546C217.501 123.651 217.359 123.71 217.21 123.71C217.061 123.71 216.919 123.651 216.814 123.546C216.709 123.441 216.65 123.298 216.65 123.15C216.65 123.001 216.709 122.859 216.814 122.754C216.919 122.649 217.061 122.59 217.21 122.59C217.359 122.59 217.501 122.649 217.606 122.754C217.711 122.859 217.77 123.001 217.77 123.15V123.15Z" fill="#EAF0FB"/>
<path d="M155.4 133.38C155.402 133.493 155.37 133.604 155.309 133.699C155.247 133.794 155.159 133.869 155.055 133.914C154.951 133.958 154.836 133.971 154.725 133.95C154.614 133.929 154.511 133.876 154.431 133.797C154.35 133.717 154.295 133.616 154.272 133.505C154.249 133.394 154.26 133.279 154.303 133.174C154.345 133.069 154.418 132.98 154.512 132.917C154.606 132.854 154.717 132.82 154.83 132.82C154.904 132.819 154.978 132.832 155.047 132.86C155.116 132.887 155.179 132.928 155.232 132.98C155.286 133.032 155.328 133.095 155.356 133.163C155.385 133.232 155.4 133.306 155.4 133.38V133.38Z" fill="#EAF0FB"/>
<path d="M263.32 213.82C263.381 213.612 263.507 213.43 263.68 213.3C263.853 213.17 264.064 213.1 264.28 213.1C264.496 213.1 264.707 213.17 264.88 213.3C265.053 213.43 265.179 213.612 265.24 213.82" fill="#EAF0FB"/>
</svg>
