<svg class="ufo" viewBox="0 0 98 159" fill="none" xmlns="http://www.w3.org/2000/svg">
    <g clip-path="url(#clip0_16_123)">
        <g id="beam">
    <path opacity="0.5" d="M29.68 61.51L0 153.79H95.96L64.74 61.51H29.68Z" fill="url(#paint0_linear_16_123)"/>
    <path d="M47.98 158.75C73.5397 158.75 94.26 155.213 94.26 150.85C94.26 146.487 73.5397 142.95 47.98 142.95C22.4203 142.95 1.70001 146.487 1.70001 150.85C1.70001 155.213 22.4203 158.75 47.98 158.75Z" fill="#B3FFF9"/>
        </g>
    <g opacity="0.44">
    <path d="M58.54 91.79C59.1807 91.79 59.7 91.2706 59.7 90.63C59.7 89.9893 59.1807 89.47 58.54 89.47C57.8994 89.47 57.38 89.9893 57.38 90.63C57.38 91.2706 57.8994 91.79 58.54 91.79Z" fill="#FFFDF0"/>
    <path d="M27.46 98.3898C28.1007 98.3898 28.62 97.8705 28.62 97.2298C28.62 96.5892 28.1007 96.0698 27.46 96.0698C26.8194 96.0698 26.3 96.5892 26.3 97.2298C26.3 97.8705 26.8194 98.3898 27.46 98.3898Z" fill="#FFFDF0"/>
    <path d="M64.03 73.6799C64.3117 73.6799 64.54 73.4516 64.54 73.1699C64.54 72.8882 64.3117 72.6599 64.03 72.6599C63.7483 72.6599 63.52 72.8882 63.52 73.1699C63.52 73.4516 63.7483 73.6799 64.03 73.6799Z" fill="#8BD6EE"/>
    <path d="M69.93 102.66C70.2117 102.66 70.44 102.432 70.44 102.15C70.44 101.868 70.2117 101.64 69.93 101.64C69.6483 101.64 69.42 101.868 69.42 102.15C69.42 102.432 69.6483 102.66 69.93 102.66Z" fill="#8BD6EE"/>
    <path d="M47.87 83.23C48.1517 83.23 48.38 83.0016 48.38 82.72C48.38 82.4383 48.1517 82.21 47.87 82.21C47.5883 82.21 47.36 82.4383 47.36 82.72C47.36 83.0016 47.5883 83.23 47.87 83.23Z" fill="#FFFDF0"/>
    <path d="M41.38 93.73C41.6617 93.73 41.89 93.5016 41.89 93.22C41.89 92.9383 41.6617 92.71 41.38 92.71C41.0983 92.71 40.87 92.9383 40.87 93.22C40.87 93.5016 41.0983 93.73 41.38 93.73Z" fill="#8BD6EE"/>
    <path d="M34.54 107.94C34.54 108.041 34.5101 108.139 34.4541 108.223C34.398 108.307 34.3184 108.373 34.2252 108.411C34.132 108.45 34.0294 108.46 33.9305 108.44C33.8316 108.42 33.7407 108.372 33.6694 108.301C33.5981 108.229 33.5495 108.138 33.5298 108.039C33.5101 107.94 33.5202 107.838 33.5588 107.745C33.5974 107.652 33.6628 107.572 33.7467 107.516C33.8305 107.46 33.9291 107.43 34.03 107.43C34.1653 107.43 34.295 107.484 34.3906 107.579C34.4863 107.675 34.54 107.805 34.54 107.94V107.94Z" fill="#FFFDF0"/>
    <path d="M34.03 76.0298C34.032 76.1311 34.0038 76.2306 33.949 76.3158C33.8941 76.401 33.8152 76.4679 33.7222 76.508C33.6292 76.5482 33.5264 76.5597 33.4268 76.5412C33.3272 76.5226 33.2354 76.4749 33.1631 76.404C33.0907 76.3331 33.0412 76.2422 33.0207 76.143C33.0002 76.0438 33.0097 75.9408 33.0479 75.847C33.0862 75.7532 33.1516 75.673 33.2357 75.6165C33.3197 75.56 33.4187 75.5298 33.52 75.5298C33.6535 75.5298 33.7818 75.5821 33.8771 75.6756C33.9725 75.7691 34.0274 75.8963 34.03 76.0298V76.0298Z" fill="#FFFDF0"/>
    </g>
    <path d="M5.92 51.9199C5.92 51.9199 21.05 65.2799 47.83 65.2799C74.61 65.2799 92.57 51.6499 92.57 51.6499L5.92 51.9199Z" fill="#9FFFED"/>
    <path d="M48.99 58.9199C76.0409 58.9199 97.97 52.925 97.97 45.5299C97.97 38.1348 76.0409 32.1399 48.99 32.1399C21.9391 32.1399 0.0100098 38.1348 0.0100098 45.5299C0.0100098 52.925 21.9391 58.9199 48.99 58.9199Z" fill="#3EDBCC"/>
    <path d="M95.31 42.55C94.9191 41.984 94.4436 41.4815 93.9 41.06C83.96 31.06 70.75 27.52 70.75 27.52H26.88C10.6 32.42 3.42001 40.88 2.43001 42.13C2.39437 42.1655 2.36405 42.2059 2.34001 42.25C1.81622 42.874 1.51691 43.6557 1.49001 44.47C1.49001 50.96 22.65 56.22 48.74 56.22C74.83 56.22 95.99 50.96 95.99 44.47C95.9599 43.7765 95.7231 43.1079 95.31 42.55V42.55Z" fill="#5F6798"/>
    <g id="lights">                
    <path d="M48.85 46.5299C51.1475 46.5299 53.01 45.2091 53.01 43.5799C53.01 41.9506 51.1475 40.6299 48.85 40.6299C46.5525 40.6299 44.69 41.9506 44.69 43.5799C44.69 45.2091 46.5525 46.5299 48.85 46.5299Z" fill="#88FFE8"/>
    <path d="M30.42 41.11C30.8 42.36 29.42 43.8999 27.25 44.5299C25.08 45.1599 23.1 44.6699 22.73 43.4099C22.36 42.1499 23.73 40.62 25.89 39.99C28.05 39.36 30.05 39.85 30.42 41.11Z" fill="#88FFE8"/>
    <path d="M16.31 36.8501C16.74 37.5901 15.76 38.9701 14.11 39.9201C12.46 40.8701 10.78 41.0301 10.35 40.2901C9.92001 39.5501 10.91 38.1701 12.55 37.2201C14.19 36.2701 15.88 36.1001 16.31 36.8501Z" fill="#88FFE8"/>
    <path d="M81.26 36.8501C80.83 37.5901 81.81 38.9701 83.46 39.9201C85.11 40.8701 86.79 41.0301 87.22 40.2901C87.65 39.5501 86.66 38.1701 85.02 37.2201C83.38 36.2701 81.69 36.1001 81.26 36.8501Z" fill="#88FFE8"/>
    <path d="M67.23 41.11C66.86 42.36 68.23 43.8999 70.4 44.5299C72.57 45.1599 74.55 44.6699 74.93 43.4099C75.31 42.1499 73.88 40.62 71.76 39.99C69.64 39.36 67.63 39.85 67.23 41.11Z" fill="#88FFE8"/>
    <path d="M9.28 35.93C9.72347 34.9052 10.503 34.0622 11.49 33.54C12.3358 32.9972 13.3255 32.7219 14.33 32.75L9.28 35.93Z" fill="#88FFE8"/>
    <path d="M88.33 36.2801C87.8649 35.3333 87.145 34.5351 86.2511 33.9751C85.3572 33.4151 84.3248 33.1155 83.27 33.1101L88.33 36.2801Z" fill="#88FFE8"/>
    </g>
    <path d="M48.99 31.8C61.1016 31.8 70.92 29.8838 70.92 27.52C70.92 25.1562 61.1016 23.24 48.99 23.24C36.8784 23.24 27.06 25.1562 27.06 27.52C27.06 29.8838 36.8784 31.8 48.99 31.8Z" fill="#CF7DDB"/>
    <path d="M69.18 27.8799C69.311 27.8185 69.4181 27.7157 69.485 27.5874C69.5518 27.4592 69.5747 27.3125 69.55 27.1699C67.95 18.6599 59.36 12.1699 48.99 12.1699C38.62 12.1699 29.99 18.6799 28.43 27.1699C28.4045 27.3003 28.4196 27.4354 28.4732 27.557C28.5269 27.6786 28.6165 27.7808 28.73 27.8499C29.94 28.5899 34.51 30.5599 48.99 30.5599C61.63 30.5699 67.05 28.8799 69.18 27.8799Z" fill="#3EDBCC"/>
    <path d="M49.51 11.89V3.06C49.8194 2.95532 50.0881 2.75617 50.2783 2.49065C50.4684 2.22512 50.5705 1.9066 50.57 1.57999C50.57 1.16095 50.4035 0.759076 50.1072 0.462769C49.8109 0.166461 49.409 0 48.99 0C48.571 0 48.1691 0.166461 47.8728 0.462769C47.5765 0.759076 47.41 1.16095 47.41 1.57999C47.4088 1.90538 47.5094 2.22299 47.6977 2.48837C47.886 2.75375 48.1525 2.95362 48.46 3.06V11.89C46.46 11.89 44.83 12.15 44.83 12.43C44.83 12.71 46.69 12.96 48.99 12.96C51.29 12.96 53.15 12.72 53.15 12.43C53.15 12.14 51.56 11.93 49.51 11.89Z" fill="#5F6798"/>
    </g>
    <defs>
    <linearGradient id="paint0_linear_16_123" x1="155.63" y1="214.49" x2="155.63" y2="414.49" gradientUnits="userSpaceOnUse">
    <stop stop-color="#4E699A"/>
    <stop offset="0.7" stop-color="#4E699A" stop-opacity="0.5"/>
    <stop offset="1" stop-color="#4E699A" stop-opacity="0.2"/>
    </linearGradient>
    <clipPath id="clip0_16_123">
    <rect width="98" height="158.75" fill="white"/>
    </clipPath>
    </defs>
    </svg>